<svg version="1.1" xmlns="http://www.w3.org/2000/svg" viewBox="-8.236156955103507 -9.43141785304047 18.180561830426523 19.560247864497967" fill="none" stroke="black" stroke-width="0.6%" vector-effect="non-scaling-stroke">
    <path d="M -4.47209 5.47726 L -4.47209 -3.65139 L 0.00022 0.00018 L 8.9444 -1.82569 L 4.47209 -5.47726" />
    <path d="M 0.00022 9.12883 L 0.00022 0.00018" />
    <path d="M -4.47209 5.47726 L 0.00022 9.12883 L 8.9444 7.30296 L 8.9444 -1.82569" />
    <path d="M -4.47209 -3.65139 L 0 -4.56432 L 4.47209 -5.47726" />
    <path d="M -4.47231 -8.21589 A 5 2.04131 0 0 1 2.76384 -6.39011 L 2.76384 -5.12854" />
    <path d="M 2.76384 -6.39011 A 5 2.04131 0 0 1 0 -4.56432 A 5 2.04131 0 0 1 -7.23616 -6.39011 L -7.23616 2.73854" />
    <path d="M -4.47209 4.56437 A 5 2.04131 0 0 1 -7.23616 2.73854" />
    <path d="M -7.23616 -6.39011 A 5 2.04131 0 0 1 -4.47231 -8.21589" />
</svg>